<svg width="61" height="58" fill="none" xmlns="http://www.w3.org/2000/svg"><path fill-rule="evenodd" clip-rule="evenodd" d="M32.067 28.228l6.211 2.906c.634.253 1.394.127 1.775-.253.123-.122.258-.244.399-.37.302-.272.614-.554.869-.893.507-.505.634-1.263.253-1.769l-2.916-6.19c1.014-1.643 1.775-3.538 2.283-5.433l6.592-2.274c.633-.253 1.014-.758 1.14-1.516v-1.769c0-.632-.507-1.264-1.14-1.516l-6.466-2.4c-.507-1.896-1.267-3.79-2.282-5.433L39.407 0c12.502 3.778 21.546 15.297 21.546 29.003 0 5.277-1.354 10.23-3.73 14.542-.152-.355-.636-.59-1.002-.59l-5.224.256a17.36 17.36 0 00-3.058-3.058l.255-5.223c0-.382-.255-.891-.637-1.019a6.209 6.209 0 00-1.401-.51c-.383-.127-.892 0-1.147.255l-3.44 3.822a12.366 12.366 0 00-4.333 0l-3.44-3.822c-.255-.382-.764-.51-1.147-.254a1.736 1.736 0 01-.324.115c-.13.037-.241.068-.313.14-.255.127-.51.254-.637.254-.382.128-.637.637-.637 1.02l.255 5.222c-1.147.892-2.294 1.911-3.058 3.058l-5.224-.255c-.383 0-.892.255-1.02.637a6.23 6.23 0 00-.51 1.401c-.127.382 0 .892.256 1.146l3.822 3.44a12.371 12.371 0 000 4.331l-3.822 3.44a.868.868 0 00-.36.497C8.818 53.898 0 42.434 0 29.003c0-4.623 1.038-8.997 2.893-12.91.523 1.902 1.284 3.797 2.298 5.44L2.15 27.848c-.254.632-.127 1.39.253 1.769.123.122.245.258.372.397.267.295.553.61.896.866.507.506 1.268.632 1.775.253l6.212-2.906c1.648 1.011 3.549 1.769 5.45 2.274l2.283 6.57c.253.632.76 1.01 1.52 1.137h1.775c.635 0 1.268-.505 1.522-1.137l2.282-6.57c2.155-.505 3.93-1.263 5.578-2.274zm7.18 29.293c3.27 0 5.92-2.614 5.92-5.838 0-3.225-2.65-5.839-5.92-5.839-3.268 0-5.919 2.614-5.919 5.839 0 3.224 2.65 5.838 5.92 5.838zm-8.99-46.033c0 4.589-3.73 8.308-8.332 8.308s-8.332-3.72-8.332-8.308c0-4.588 3.73-8.308 8.332-8.308 4.601 0 8.331 3.72 8.331 8.308z" fill="#183249"/></svg>